<svg id="Layer_1" data-name="Layer 1" xmlns="http://www.w3.org/2000/svg" viewBox="0 0 26 52"><defs><style>.cls-1{fill:#7ccbfc;}.cls-2{fill:#212c43;}</style></defs><title>benefits-arrows</title><path class="cls-1" d="M13.53,7.23a.73.73,0,0,0-1.06,0L11.69,8a.73.73,0,0,0,0,1.05l2.64,2.64H7.74a.73.73,0,0,0-.73.73v1.12a.73.73,0,0,0,.22.53.71.71,0,0,0,.52.22h6.59l-2.64,2.64a.69.69,0,0,0-.23.52.72.72,0,0,0,.23.53l.78.78a.73.73,0,0,0,1.06,0l5.24-5.25a.72.72,0,0,0,0-1ZM13,0A13,13,0,1,0,26,13,13,13,0,0,0,13,0Zm0,23.4A10.4,10.4,0,1,1,23.4,13,10.4,10.4,0,0,1,13,23.4Z"/><path class="cls-2" d="M13.53,33.23a.73.73,0,0,0-1.06,0l-.78.78a.72.72,0,0,0,0,1.05l2.64,2.64H7.74a.73.73,0,0,0-.73.73v1.12a.73.73,0,0,0,.22.53.71.71,0,0,0,.52.22h6.59l-2.64,2.64a.69.69,0,0,0-.23.52.72.72,0,0,0,.23.53l.78.78a.73.73,0,0,0,1.06,0l5.24-5.25a.71.71,0,0,0,0-1ZM13,26A13,13,0,1,0,26,39,13,13,0,0,0,13,26Zm0,23.4A10.4,10.4,0,1,1,23.4,39,10.4,10.4,0,0,1,13,49.4Z"/></svg>